<?xml version="1.0" standalone="no"?>
<!DOCTYPE svg PUBLIC "-//W3C//DTD SVG 20010904//EN"
 "http://www.w3.org/TR/2001/REC-SVG-20010904/DTD/svg10.dtd">
<svg version="1.0" xmlns="http://www.w3.org/2000/svg"
 width="180.000000pt" height="263.000000pt" viewBox="0 0 180.000000 263.000000"
 preserveAspectRatio="xMidYMid meet">
<metadata>
Created by potrace 1.15, written by Peter Selinger 2001-2017
</metadata>
<g transform="translate(0.000000,263.000000) scale(0.100000,-0.100000)"
fill="#000" stroke="none">
<path d="M1127 2623 c-4 -3 -7 -405 -7 -893 0 -883 -2 -955 -35 -1023 -40 -85
-89 -112 -204 -112 -96 0 -139 15 -181 62 -56 61 -70 120 -70 290 l0 143 -312
-2 -313 -3 -3 -159 c-3 -175 10 -272 55 -405 43 -131 90 -209 178 -296 109
-108 206 -156 415 -206 36 -8 124 -12 255 -12 183 0 209 3 310 28 275 68 445
215 531 457 50 142 49 126 49 1163 l0 970 -331 3 c-182 1 -333 -1 -337 -5z"/>
</g>
</svg>
